
        <svg xmlns="http://www.w3.org/2000/svg" xmlns:xlink="http://www.w3.org/1999/xlink" version="1.1" width="3162.3083859332733" 
        height="842.9364416244073" viewBox="0 0 3162.3083859332733 842.9364416244073">
			
			<g transform="scale(8.11541929666366) translate(10, 10)">
				<defs id="SvgjsDefs1619"></defs><g id="SvgjsG1620" featureKey="xG21Y3-0" transform="matrix(0.3058103975535168,0,0,0.3058103975535168,-35.77981651376147,-33.830275229357795)" fill="#58d5d3"><path xmlns="http://www.w3.org/2000/svg" d="M371.5,160.5L271,114c-9.5-4.5-25.5-4.5-35.5,0L135,160.5c-10,4.5-18,17-18,28V307c0,11,8,23.5,18,28l100.5,46.5  c9.5,4.5,25.5,4.5,35.5,0L371.5,335c10-4.5,18-17,18-28V188.5C389.5,177.5,381.5,165,371.5,160.5z M355,205l-76,35  c-6.5,3-12,11.5-12,18.5V339c0,7-6,13-13,13h-1.5c-7,0-13-6-13-13v-80.5c0-7-5.5-15.5-12-18.5l-76-35c-6.5-3-9.5-11-6.5-17.5  l0.5-1.5c3-6.5,11-9.5,17.5-6.5l78,36c6.5,3,17.5,3,24,0l78-36c6.5-3,14.5,0,17.5,6.5l1,1.5C364.5,194,361.5,202,355,205z"></path></g><g id="SvgjsG1621" featureKey="n48U4P-0" transform="matrix(3.462237094179528,0,0,3.462237094179528,97.96230331271298,-1.3125656427739436)" fill="#111111"><path d="M7.3535 9.766 c2.6367 0 4.8242 1.9531 4.8242 5.2344 s-2.1875 5.2344 -4.8242 5.2344 c-1.3867 0 -2.5977 -0.55664 -3.1641 -1.543 l-0.068359 1.3086 l-2.666 0 l0 -15 l2.8125 0 l0 6.1816 c0.58594 -0.9082 1.7578 -1.416 3.0859 -1.416 z M6.6992 17.9004 c1.4941 0 2.666 -1.1035 2.666 -2.9004 c0 -1.8066 -1.1719 -2.9102 -2.666 -2.9102 c-1.4844 0 -2.6563 1.1523 -2.6563 2.9102 s1.1621 2.9004 2.6563 2.9004 z M15.732396875 8.457 c-0.88867 0 -1.6309 -0.72266 -1.6309 -1.6211 c0 -0.88867 0.74219 -1.6113 1.6309 -1.6113 c0.86914 0 1.6113 0.72266 1.6113 1.6113 c0 0.89844 -0.74219 1.6211 -1.6113 1.6211 z M14.296896875 20 l0 -10.039 l2.832 0 l0 10.039 l-2.832 0 z M23.779284375 20 c-1.9531 0 -3.0664 -1.1328 -3.0664 -3.1348 l0 -4.7461 l-1.9727 0 l0 -2.1582 l0.63477 0 c1.0645 0 1.6504 -0.41016 1.6504 -1.9141 l0 -1.3281 l2.5391 0 l0 3.2422 l2.0703 0 l0 2.1582 l-2.0703 0 l0 4.4434 c0 0.89844 0.43945 1.2988 1.1621 1.2988 l0.9082 0 l0 2.1387 l-1.8555 0 z M37.255421874999996 14.834 l-0.029297 0.67383 l-7.4414 0 c0.11719 1.6699 1.2305 2.4707 2.5684 2.4707 c1.0059 0 1.7871 -0.46875 2.168 -1.3574 l2.5781 0.38086 c-0.66406 2.0313 -2.4707 3.1934 -4.7266 3.1934 c-3.2422 0 -5.3613 -1.9141 -5.3613 -5.2148 s2.1777 -5.2344 5.2734 -5.2344 c2.8418 0 4.9609 1.5723 4.9707 5.0879 z M32.304721875 11.7383 c-1.2793 0 -2.168 0.5957 -2.4414 1.9336 l4.6094 0 c-0.14648 -1.2793 -1.0156 -1.9336 -2.168 -1.9336 z M43.935553125 20.18555 c-3.1543 0 -5.3809 -2.0996 -5.3809 -5.2148 c0 -3.125 2.2266 -5.2051 5.3809 -5.2051 c2.5391 0 4.4434 1.3184 4.9316 3.6914 l-2.5977 0.2832 c-0.3125 -1.2012 -1.1816 -1.7578 -2.3633 -1.7578 c-1.5137 0 -2.5391 1.1914 -2.5391 2.9883 c0 1.7871 1.0254 2.9883 2.5391 2.9883 c1.1816 0 2.0508 -0.56641 2.3633 -1.7578 l2.5977 0.2832 c-0.48828 2.373 -2.4414 3.7012 -4.9316 3.7012 z M56.7968625 9.766 c2.4121 0 3.7402 1.25 3.7402 3.4766 l0 6.7578 l-2.8223 0 l0 -6.1523 c0 -1.3379 -0.83008 -1.8262 -1.7969 -1.8262 c-1.1621 0 -2.2168 0.58594 -2.2363 2.4414 l0 5.5371 l-2.8125 0 l0 -10.039 l2.8125 0 l0 1.1133 c0.70313 -0.83008 1.7871 -1.3086 3.1152 -1.3086 z M64.697240625 8.457 c-0.88867 0 -1.6309 -0.72266 -1.6309 -1.6211 c0 -0.88867 0.74219 -1.6113 1.6309 -1.6113 c0.86914 0 1.6113 0.72266 1.6113 1.6113 c0 0.89844 -0.74219 1.6211 -1.6113 1.6211 z M63.261740625 20 l0 -10.039 l2.832 0 l0 10.039 l-2.832 0 z M73.544928125 20.18555 c-3.1543 0 -5.3809 -2.0996 -5.3809 -5.2148 c0 -3.125 2.2266 -5.2051 5.3809 -5.2051 c2.5391 0 4.4434 1.3184 4.9316 3.6914 l-2.5977 0.2832 c-0.3125 -1.2012 -1.1816 -1.7578 -2.3633 -1.7578 c-1.5137 0 -2.5391 1.1914 -2.5391 2.9883 c0 1.7871 1.0254 2.9883 2.5391 2.9883 c1.1816 0 2.0508 -0.56641 2.3633 -1.7578 l2.5977 0.2832 c-0.48828 2.373 -2.4414 3.7012 -4.9316 3.7012 z"></path></g>
			</g>
		</svg>
	